<mxfile host="app.diagrams.net" modified="2023-05-28T11:05:58.246Z" agent="Mozilla/5.0 (Windows NT 10.0; Win64; x64; rv:109.0) Gecko/20100101 Firefox/113.0" etag="ScNnz1oD593urKtwbmXC" version="21.3.4" type="github">
  <diagram name="Page-1" id="hbl_of-68QhlwRTPB4iv">
    <mxGraphModel dx="2284" dy="1854" grid="1" gridSize="10" guides="1" tooltips="1" connect="1" arrows="1" fold="1" page="1" pageScale="1" pageWidth="850" pageHeight="1100" math="0" shadow="0">
      <root>
        <mxCell id="0" />
        <mxCell id="1" parent="0" />
        <mxCell id="JUChnPV1bCG0qRwm4uNy-1" value="&lt;h1 style=&quot;font-size: 22px;&quot; align=&quot;left&quot;&gt;&lt;b&gt;&amp;nbsp;&amp;nbsp;&amp;nbsp;&amp;nbsp;&amp;nbsp;&amp;nbsp;&amp;nbsp;&amp;nbsp;&amp;nbsp;&amp;nbsp;&amp;nbsp;&amp;nbsp;&amp;nbsp;&amp;nbsp;&amp;nbsp;&amp;nbsp;&amp;nbsp;&amp;nbsp;&amp;nbsp;&amp;nbsp;&amp;nbsp;&amp;nbsp;&amp;nbsp;&amp;nbsp;&amp;nbsp;&amp;nbsp;&amp;nbsp;&amp;nbsp;&amp;nbsp;&amp;nbsp;&amp;nbsp;&amp;nbsp;&amp;nbsp;&amp;nbsp;&amp;nbsp;&amp;nbsp;&amp;nbsp;&amp;nbsp;&amp;nbsp;&amp;nbsp;&amp;nbsp;&amp;nbsp;&amp;nbsp; Hot Products&lt;/b&gt;&lt;/h1&gt;" style="rounded=0;whiteSpace=wrap;html=1;align=left;" parent="1" vertex="1">
          <mxGeometry x="-115" y="-230" width="790" height="2120" as="geometry" />
        </mxCell>
        <mxCell id="JUChnPV1bCG0qRwm4uNy-2" value="LOGO" style="rounded=0;whiteSpace=wrap;html=1;" parent="1" vertex="1">
          <mxGeometry x="235" y="-210" width="90" height="30" as="geometry" />
        </mxCell>
        <mxCell id="JUChnPV1bCG0qRwm4uNy-3" value="&lt;div&gt;3x background images with a slider and&lt;br&gt;&lt;/div&gt;&lt;div&gt;&amp;nbsp;points to change the background , some seo keywords&lt;br&gt;&lt;/div&gt;" style="rounded=0;whiteSpace=wrap;html=1;" parent="1" vertex="1">
          <mxGeometry x="-55" y="-150" width="670" height="280" as="geometry" />
        </mxCell>
        <mxCell id="JUChnPV1bCG0qRwm4uNy-5" value="" style="verticalLabelPosition=bottom;shadow=0;dashed=0;align=center;html=1;verticalAlign=top;strokeWidth=1;shape=mxgraph.mockup.misc.shoppingCart;strokeColor=#999999;" parent="1" vertex="1">
          <mxGeometry x="1340" y="-90" width="30" height="30" as="geometry" />
        </mxCell>
        <mxCell id="JUChnPV1bCG0qRwm4uNy-7" value="" style="shape=image;html=1;verticalAlign=top;verticalLabelPosition=bottom;labelBackgroundColor=#ffffff;imageAspect=0;aspect=fixed;image=https://cdn3.iconfinder.com/data/icons/minimalisticons/28/burger-menu-1-128.png" parent="1" vertex="1">
          <mxGeometry x="580" y="-210" width="30" height="30" as="geometry" />
        </mxCell>
        <mxCell id="JUChnPV1bCG0qRwm4uNy-9" value="picture with spring vegetable plant and a button to a another site&amp;nbsp; with a list with the available products in the spring season" style="rounded=0;whiteSpace=wrap;html=1;shadow=0;" parent="1" vertex="1">
          <mxGeometry x="-40" y="160" width="130" height="180" as="geometry" />
        </mxCell>
        <mxCell id="JUChnPV1bCG0qRwm4uNy-37" value="picture with summer vegetable plant and a button to a another site&amp;nbsp; with a list with the available products in the summer season" style="rounded=0;whiteSpace=wrap;html=1;shadow=0;" parent="1" vertex="1">
          <mxGeometry x="130" y="160" width="130" height="180" as="geometry" />
        </mxCell>
        <mxCell id="JUChnPV1bCG0qRwm4uNy-38" value="picture with autum vegetable plant and a button to a another site&amp;nbsp; with a list with the available products in the autum season" style="rounded=0;whiteSpace=wrap;html=1;shadow=0;" parent="1" vertex="1">
          <mxGeometry x="300" y="160" width="130" height="180" as="geometry" />
        </mxCell>
        <mxCell id="JUChnPV1bCG0qRwm4uNy-40" value="picture with spring vegetable plant and a button to a another site&amp;nbsp; with a list with the available products in the spring season" style="rounded=0;whiteSpace=wrap;html=1;shadow=0;" parent="1" vertex="1">
          <mxGeometry x="482.5" y="160" width="125" height="180" as="geometry" />
        </mxCell>
        <mxCell id="JUChnPV1bCG0qRwm4uNy-42" value="&lt;div&gt;&amp;nbsp;&amp;nbsp;&amp;nbsp;&amp;nbsp;&amp;nbsp;&amp;nbsp;&amp;nbsp; &amp;nbsp; &amp;nbsp; &amp;nbsp; &amp;nbsp; &amp;nbsp; &amp;nbsp; &amp;nbsp; &amp;nbsp; &amp;nbsp; &amp;nbsp; &amp;nbsp;&amp;nbsp; contact form send with node.js&lt;/div&gt;&lt;div&gt;&lt;br&gt;&lt;/div&gt;" style="rounded=0;whiteSpace=wrap;html=1;align=left;" parent="1" vertex="1">
          <mxGeometry x="105" y="360" width="350" height="210" as="geometry" />
        </mxCell>
        <mxCell id="JUChnPV1bCG0qRwm4uNy-43" value="Primary" style="rounded=1;fillColor=#0057D8;strokeColor=none;html=1;whiteSpace=wrap;fontColor=#ffffff;align=center;verticalAlign=middle;fontStyle=0;fontSize=12;sketch=0;" parent="1" vertex="1">
          <mxGeometry x="237" y="530" width="86" height="33" as="geometry" />
        </mxCell>
        <mxCell id="JUChnPV1bCG0qRwm4uNy-48" value="" style="html=1;verticalLabelPosition=bottom;labelBackgroundColor=#ffffff;verticalAlign=top;shadow=0;dashed=0;strokeWidth=2;shape=mxgraph.ios7.misc.left;strokeColor=#0080f0;" parent="1" vertex="1">
          <mxGeometry x="-10" y="610" width="16" height="30" as="geometry" />
        </mxCell>
        <mxCell id="JUChnPV1bCG0qRwm4uNy-49" value="&lt;div style=&quot;font-size: 7px;&quot; align=&quot;center&quot;&gt;Photo of vegetable&lt;br&gt;&lt;/div&gt;" style="rounded=0;whiteSpace=wrap;html=1;" parent="1" vertex="1">
          <mxGeometry x="15" y="590" width="90" height="100" as="geometry" />
        </mxCell>
        <mxCell id="JUChnPV1bCG0qRwm4uNy-50" value="&lt;div style=&quot;font-size: 7px;&quot; align=&quot;center&quot;&gt;Photo of vegetable&lt;br&gt;&lt;/div&gt;" style="rounded=0;whiteSpace=wrap;html=1;" parent="1" vertex="1">
          <mxGeometry x="160" y="590" width="90" height="100" as="geometry" />
        </mxCell>
        <mxCell id="JUChnPV1bCG0qRwm4uNy-52" value="&lt;div style=&quot;font-size: 7px;&quot; align=&quot;center&quot;&gt;Photo of vegetable&lt;br&gt;&lt;/div&gt;" style="rounded=0;whiteSpace=wrap;html=1;" parent="1" vertex="1">
          <mxGeometry x="300" y="590" width="90" height="100" as="geometry" />
        </mxCell>
        <mxCell id="JUChnPV1bCG0qRwm4uNy-53" value="&lt;div style=&quot;font-size: 7px;&quot; align=&quot;center&quot;&gt;Photo of vegetable&lt;br&gt;&lt;/div&gt;" style="rounded=0;whiteSpace=wrap;html=1;labelBackgroundColor=default;" parent="1" vertex="1">
          <mxGeometry x="450" y="590" width="90" height="100" as="geometry" />
        </mxCell>
        <mxCell id="JUChnPV1bCG0qRwm4uNy-54" value="" style="html=1;verticalLabelPosition=bottom;labelBackgroundColor=#ffffff;verticalAlign=top;shadow=0;dashed=0;strokeWidth=2;shape=mxgraph.ios7.misc.right;strokeColor=#0080f0;" parent="1" vertex="1">
          <mxGeometry x="555" y="610" width="20" height="32.5" as="geometry" />
        </mxCell>
        <mxCell id="JUChnPV1bCG0qRwm4uNy-57" value="" style="verticalLabelPosition=bottom;shadow=0;dashed=0;align=center;html=1;verticalAlign=top;strokeWidth=1;shape=mxgraph.mockup.misc.shoppingCart;strokeColor=#999999;" parent="1" vertex="1">
          <mxGeometry x="50" y="662.5" width="20" height="20" as="geometry" />
        </mxCell>
        <mxCell id="JUChnPV1bCG0qRwm4uNy-58" value="" style="verticalLabelPosition=bottom;shadow=0;dashed=0;align=center;html=1;verticalAlign=top;strokeWidth=1;shape=mxgraph.mockup.misc.shoppingCart;strokeColor=#999999;" parent="1" vertex="1">
          <mxGeometry x="185" y="662.5" width="20" height="20" as="geometry" />
        </mxCell>
        <mxCell id="JUChnPV1bCG0qRwm4uNy-59" value="" style="verticalLabelPosition=bottom;shadow=0;dashed=0;align=center;html=1;verticalAlign=top;strokeWidth=1;shape=mxgraph.mockup.misc.shoppingCart;strokeColor=#999999;" parent="1" vertex="1">
          <mxGeometry x="335" y="662.5" width="20" height="20" as="geometry" />
        </mxCell>
        <mxCell id="JUChnPV1bCG0qRwm4uNy-61" value="" style="verticalLabelPosition=bottom;shadow=0;dashed=0;align=center;html=1;verticalAlign=top;strokeWidth=1;shape=mxgraph.mockup.misc.shoppingCart;strokeColor=#999999;" parent="1" vertex="1">
          <mxGeometry x="490" y="657.5" width="20" height="25" as="geometry" />
        </mxCell>
        <mxCell id="JUChnPV1bCG0qRwm4uNy-63" value="&lt;h1 style=&quot;font-size: 23px;&quot;&gt;&lt;font size=&quot;1&quot;&gt;&lt;b&gt;&lt;font style=&quot;font-size: 22px;&quot;&gt;About us&lt;/font&gt;&lt;/b&gt;&lt;/font&gt;&lt;/h1&gt;" style="text;html=1;strokeColor=none;fillColor=none;align=center;verticalAlign=middle;whiteSpace=wrap;rounded=0;" parent="1" vertex="1">
          <mxGeometry x="195" y="710" width="160" height="30" as="geometry" />
        </mxCell>
        <mxCell id="JUChnPV1bCG0qRwm4uNy-64" value="Image of fresh herbs" style="rounded=0;whiteSpace=wrap;html=1;" parent="1" vertex="1">
          <mxGeometry x="50" y="760" width="190" height="360" as="geometry" />
        </mxCell>
        <mxCell id="JUChnPV1bCG0qRwm4uNy-65" value="Text with Seo Keywords." style="rounded=0;whiteSpace=wrap;html=1;" parent="1" vertex="1">
          <mxGeometry x="240" y="760" width="280" height="360" as="geometry" />
        </mxCell>
        <mxCell id="JUChnPV1bCG0qRwm4uNy-70" value="" style="verticalLabelPosition=bottom;shadow=0;dashed=0;align=center;html=1;verticalAlign=top;strokeWidth=1;shape=mxgraph.mockup.misc.map;" parent="1" vertex="1">
          <mxGeometry x="20" y="1190" width="250" height="250" as="geometry" />
        </mxCell>
        <mxCell id="JUChnPV1bCG0qRwm4uNy-71" value="" style="verticalLabelPosition=bottom;shadow=0;dashed=0;align=center;html=1;verticalAlign=top;strokeWidth=1;shape=mxgraph.mockup.misc.map;" parent="1" vertex="1">
          <mxGeometry x="325" y="1190" width="250" height="250" as="geometry" />
        </mxCell>
        <mxCell id="JUChnPV1bCG0qRwm4uNy-74" value="&lt;h1&gt;Heading&lt;/h1&gt;&lt;p&gt;Lorem ipsum dolor sit amet, consectetur adipisicing elit, sed do eiusmod tempor incididunt ut labore et dolore magna aliqua.&lt;/p&gt;" style="text;html=1;strokeColor=none;fillColor=none;spacing=5;spacingTop=-20;whiteSpace=wrap;overflow=hidden;rounded=0;" parent="1" vertex="1">
          <mxGeometry x="47" y="1450" width="190" height="120" as="geometry" />
        </mxCell>
        <mxCell id="JUChnPV1bCG0qRwm4uNy-75" value="&lt;h1&gt;Heading&lt;/h1&gt;&lt;p&gt;Lorem ipsum dolor sit amet, consectetur adipisicing elit, sed do eiusmod tempor incididunt ut labore et dolore magna aliqua.&lt;/p&gt;" style="text;html=1;strokeColor=none;fillColor=none;spacing=5;spacingTop=-20;whiteSpace=wrap;overflow=hidden;rounded=0;" parent="1" vertex="1">
          <mxGeometry x="380" y="1450" width="190" height="120" as="geometry" />
        </mxCell>
        <mxCell id="JUChnPV1bCG0qRwm4uNy-77" value="" style="rounded=0;whiteSpace=wrap;html=1;movable=0;resizable=0;rotatable=0;deletable=0;editable=0;locked=1;connectable=0;" parent="1" vertex="1">
          <mxGeometry x="-115" y="1630" width="790" height="260" as="geometry" />
        </mxCell>
        <mxCell id="JUChnPV1bCG0qRwm4uNy-83" value="" style="rounded=0;whiteSpace=wrap;html=1;" parent="1" vertex="1">
          <mxGeometry x="410" y="1630" width="265" height="260" as="geometry" />
        </mxCell>
        <mxCell id="JUChnPV1bCG0qRwm4uNy-85" value="" style="rounded=0;whiteSpace=wrap;html=1;" parent="1" vertex="1">
          <mxGeometry x="-115" y="1630" width="265" height="260" as="geometry" />
        </mxCell>
        <mxCell id="JUChnPV1bCG0qRwm4uNy-87" value="&lt;div&gt;navigation links&lt;/div&gt;" style="text;html=1;strokeColor=none;fillColor=none;align=center;verticalAlign=middle;whiteSpace=wrap;rounded=0;" parent="1" vertex="1">
          <mxGeometry x="-39" y="1660" width="100" height="30" as="geometry" />
        </mxCell>
        <mxCell id="JUChnPV1bCG0qRwm4uNy-89" value="" style="line;strokeWidth=2;direction=south;html=1;rotation=90;" parent="1" vertex="1">
          <mxGeometry x="6" y="1650" width="10" height="110" as="geometry" />
        </mxCell>
        <mxCell id="JUChnPV1bCG0qRwm4uNy-90" value="" style="line;strokeWidth=2;direction=south;html=1;rotation=90;" parent="1" vertex="1">
          <mxGeometry x="5" y="1680" width="10" height="110" as="geometry" />
        </mxCell>
        <mxCell id="JUChnPV1bCG0qRwm4uNy-91" value="" style="line;strokeWidth=2;direction=south;html=1;rotation=90;" parent="1" vertex="1">
          <mxGeometry x="5" y="1710" width="10" height="110" as="geometry" />
        </mxCell>
        <mxCell id="JUChnPV1bCG0qRwm4uNy-93" value="" style="line;strokeWidth=2;direction=south;html=1;rotation=90;" parent="1" vertex="1">
          <mxGeometry x="6" y="1740" width="10" height="110" as="geometry" />
        </mxCell>
        <mxCell id="JUChnPV1bCG0qRwm4uNy-94" value="" style="line;strokeWidth=2;direction=south;html=1;rotation=90;" parent="1" vertex="1">
          <mxGeometry x="5" y="1770" width="10" height="110" as="geometry" />
        </mxCell>
        <mxCell id="JUChnPV1bCG0qRwm4uNy-95" value="&lt;div&gt;Newsletter&lt;/div&gt;" style="text;html=1;strokeColor=none;fillColor=none;align=center;verticalAlign=middle;whiteSpace=wrap;rounded=0;" parent="1" vertex="1">
          <mxGeometry x="245" y="1660" width="60" height="30" as="geometry" />
        </mxCell>
        <mxCell id="JUChnPV1bCG0qRwm4uNy-96" value="" style="html=1;shadow=0;dashed=0;fillColor=#F8F9FA;strokeColor=none;fontSize=16;fontColor=#181819;align=left;spacing=15;" parent="1" vertex="1">
          <mxGeometry x="170" y="1690" width="220" height="60" as="geometry" />
        </mxCell>
        <mxCell id="JUChnPV1bCG0qRwm4uNy-97" value="Username" style="html=1;shadow=0;dashed=0;shape=mxgraph.bootstrap.rrect;rSize=5;strokeColor=#CED4DA;html=1;whiteSpace=wrap;fillColor=#FFFFFF;fontColor=#7D868C;align=left;spacingLeft=50;fontSize=14;" parent="JUChnPV1bCG0qRwm4uNy-96" vertex="1">
          <mxGeometry width="200" height="40" relative="1" as="geometry">
            <mxPoint x="10" y="10" as="offset" />
          </mxGeometry>
        </mxCell>
        <mxCell id="JUChnPV1bCG0qRwm4uNy-98" value="@" style="html=1;shadow=0;dashed=0;shape=mxgraph.bootstrap.leftButton;strokeColor=inherit;gradientColor=inherit;fontColor=inherit;fillColor=#E9ECEF;rSize=5;perimeter=none;whiteSpace=wrap;resizeHeight=1;" parent="JUChnPV1bCG0qRwm4uNy-97" vertex="1">
          <mxGeometry width="40" height="40" relative="1" as="geometry" />
        </mxCell>
        <mxCell id="JUChnPV1bCG0qRwm4uNy-99" value="Primary" style="rounded=1;fillColor=#0057D8;strokeColor=none;html=1;whiteSpace=wrap;fontColor=#ffffff;align=center;verticalAlign=middle;fontStyle=0;fontSize=12;sketch=0;" parent="1" vertex="1">
          <mxGeometry x="232" y="1757" width="86" height="33" as="geometry" />
        </mxCell>
        <mxCell id="JUChnPV1bCG0qRwm4uNy-100" value="Legal Informations" style="text;html=1;strokeColor=none;fillColor=none;align=center;verticalAlign=middle;whiteSpace=wrap;rounded=0;" parent="1" vertex="1">
          <mxGeometry x="455" y="1660" width="170" height="30" as="geometry" />
        </mxCell>
        <mxCell id="JUChnPV1bCG0qRwm4uNy-101" value="impressum" style="text;html=1;strokeColor=none;fillColor=none;align=center;verticalAlign=middle;whiteSpace=wrap;rounded=0;" parent="1" vertex="1">
          <mxGeometry x="516" y="1720" width="60" height="30" as="geometry" />
        </mxCell>
        <mxCell id="JUChnPV1bCG0qRwm4uNy-102" value="&#xa;Terms of Service &#xa;&#xa;" style="text;html=1;strokeColor=none;fillColor=none;align=center;verticalAlign=middle;whiteSpace=wrap;rounded=0;" parent="1" vertex="1">
          <mxGeometry x="491" y="1760" width="110" height="30" as="geometry" />
        </mxCell>
        <mxCell id="JUChnPV1bCG0qRwm4uNy-104" value="Privacy Policy" style="text;html=1;strokeColor=none;fillColor=none;align=center;verticalAlign=middle;whiteSpace=wrap;rounded=0;" parent="1" vertex="1">
          <mxGeometry x="484.5" y="1780" width="123" height="30" as="geometry" />
        </mxCell>
        <mxCell id="JUChnPV1bCG0qRwm4uNy-105" value="Disclamer" style="text;html=1;strokeColor=none;fillColor=none;align=center;verticalAlign=middle;whiteSpace=wrap;rounded=0;" parent="1" vertex="1">
          <mxGeometry x="493.5" y="1810" width="103" height="30" as="geometry" />
        </mxCell>
        <mxCell id="M7QnpnwaKDsf6OKi_bXH-1" value="" style="shape=flexArrow;endArrow=classic;html=1;rounded=0;width=17;endSize=8.4;exitX=1;exitY=0.5;exitDx=0;exitDy=0;" edge="1" parent="1" source="JUChnPV1bCG0qRwm4uNy-7" target="M7QnpnwaKDsf6OKi_bXH-2">
          <mxGeometry width="50" height="50" relative="1" as="geometry">
            <mxPoint x="615" y="-180" as="sourcePoint" />
            <mxPoint x="870" y="-130" as="targetPoint" />
            <Array as="points">
              <mxPoint x="625" y="-200" />
              <mxPoint x="740" y="-160" />
            </Array>
          </mxGeometry>
        </mxCell>
        <mxCell id="M7QnpnwaKDsf6OKi_bXH-2" value="&lt;span style=&quot;white-space: pre;&quot;&gt; &lt;/span&gt;" style="rounded=0;whiteSpace=wrap;html=1;" vertex="1" parent="1">
          <mxGeometry x="750" y="-110" width="210" height="210" as="geometry" />
        </mxCell>
        <mxCell id="M7QnpnwaKDsf6OKi_bXH-3" value="Menu" style="text;html=1;strokeColor=none;fillColor=none;align=center;verticalAlign=middle;whiteSpace=wrap;rounded=0;" vertex="1" parent="1">
          <mxGeometry x="825" y="-100" width="60" height="30" as="geometry" />
        </mxCell>
        <mxCell id="M7QnpnwaKDsf6OKi_bXH-5" value="Available products" style="text;html=1;strokeColor=none;fillColor=none;align=center;verticalAlign=middle;whiteSpace=wrap;rounded=0;" vertex="1" parent="1">
          <mxGeometry x="785" y="-70" width="140" height="30" as="geometry" />
        </mxCell>
        <mxCell id="M7QnpnwaKDsf6OKi_bXH-7" value="" style="endArrow=classic;html=1;rounded=0;exitX=1;exitY=0.5;exitDx=0;exitDy=0;" edge="1" parent="1" source="M7QnpnwaKDsf6OKi_bXH-5">
          <mxGeometry width="50" height="50" relative="1" as="geometry">
            <mxPoint x="930" y="-55" as="sourcePoint" />
            <mxPoint x="1020" y="-55" as="targetPoint" />
          </mxGeometry>
        </mxCell>
        <mxCell id="M7QnpnwaKDsf6OKi_bXH-9" value="&lt;h1 style=&quot;font-size: 22px;&quot; align=&quot;left&quot;&gt;&lt;b&gt;&amp;nbsp;&amp;nbsp;&amp;nbsp;&amp;nbsp;&amp;nbsp;&amp;nbsp;&amp;nbsp;&amp;nbsp;&amp;nbsp;&amp;nbsp;&amp;nbsp;&amp;nbsp;&amp;nbsp;&amp;nbsp;&amp;nbsp;&amp;nbsp;&amp;nbsp;&amp;nbsp;&amp;nbsp;&amp;nbsp;&amp;nbsp;&amp;nbsp;&amp;nbsp;&amp;nbsp;&amp;nbsp;&amp;nbsp;&amp;nbsp;&amp;nbsp;&amp;nbsp;&amp;nbsp;&amp;nbsp;&amp;nbsp;&amp;nbsp;&amp;nbsp;&amp;nbsp;&amp;nbsp;&amp;nbsp;&amp;nbsp;&amp;nbsp;&amp;nbsp;&amp;nbsp;&amp;nbsp; &lt;br&gt;&lt;/b&gt;&lt;/h1&gt;" style="rounded=0;whiteSpace=wrap;html=1;align=left;" vertex="1" parent="1">
          <mxGeometry x="1031" y="-230" width="790" height="1520" as="geometry" />
        </mxCell>
        <mxCell id="M7QnpnwaKDsf6OKi_bXH-10" value="LOGO" style="rounded=0;whiteSpace=wrap;html=1;" vertex="1" parent="1">
          <mxGeometry x="1381" y="-200" width="90" height="30" as="geometry" />
        </mxCell>
        <mxCell id="M7QnpnwaKDsf6OKi_bXH-11" value="" style="verticalLabelPosition=bottom;shadow=0;dashed=0;align=center;html=1;verticalAlign=top;strokeWidth=1;shape=mxgraph.mockup.misc.shoppingCart;strokeColor=#999999;" vertex="1" parent="1">
          <mxGeometry x="540" y="-210" width="30" height="30" as="geometry" />
        </mxCell>
        <mxCell id="M7QnpnwaKDsf6OKi_bXH-13" value="automarticly changing background" style="rounded=0;whiteSpace=wrap;html=1;" vertex="1" parent="1">
          <mxGeometry x="1081" y="-145" width="690" height="120" as="geometry" />
        </mxCell>
        <mxCell id="M7QnpnwaKDsf6OKi_bXH-14" value="" style="shape=image;html=1;verticalAlign=top;verticalLabelPosition=bottom;labelBackgroundColor=#ffffff;imageAspect=0;aspect=fixed;image=https://cdn3.iconfinder.com/data/icons/minimalisticons/28/burger-menu-1-128.png" vertex="1" parent="1">
          <mxGeometry x="1730" y="-200" width="30" height="30" as="geometry" />
        </mxCell>
        <mxCell id="M7QnpnwaKDsf6OKi_bXH-16" value="" style="rounded=0;whiteSpace=wrap;html=1;" vertex="1" parent="1">
          <mxGeometry x="1090" y="40" width="120" height="140" as="geometry" />
        </mxCell>
        <mxCell id="M7QnpnwaKDsf6OKi_bXH-17" value="" style="rounded=0;whiteSpace=wrap;html=1;" vertex="1" parent="1">
          <mxGeometry x="1275" y="40" width="120" height="140" as="geometry" />
        </mxCell>
        <mxCell id="M7QnpnwaKDsf6OKi_bXH-18" value="" style="rounded=0;whiteSpace=wrap;html=1;" vertex="1" parent="1">
          <mxGeometry x="1450" y="40" width="120" height="140" as="geometry" />
        </mxCell>
        <mxCell id="M7QnpnwaKDsf6OKi_bXH-19" value="" style="rounded=0;whiteSpace=wrap;html=1;" vertex="1" parent="1">
          <mxGeometry x="1630" y="40" width="120" height="140" as="geometry" />
        </mxCell>
        <mxCell id="M7QnpnwaKDsf6OKi_bXH-20" value="&lt;h1&gt;Available season products&lt;/h1&gt;" style="text;html=1;strokeColor=none;fillColor=none;align=center;verticalAlign=middle;whiteSpace=wrap;rounded=0;" vertex="1" parent="1">
          <mxGeometry x="1265" y="-10" width="340" height="30" as="geometry" />
        </mxCell>
        <mxCell id="M7QnpnwaKDsf6OKi_bXH-21" value="" style="shape=image;html=1;verticalAlign=top;verticalLabelPosition=bottom;labelBackgroundColor=#ffffff;imageAspect=0;aspect=fixed;image=https://cdn4.iconfinder.com/data/icons/fruits-and-veggies-2/219/fruits-and-veggies-icons_apple-128.png" vertex="1" parent="1">
          <mxGeometry x="1125" y="50" width="50" height="50" as="geometry" />
        </mxCell>
        <mxCell id="M7QnpnwaKDsf6OKi_bXH-22" value="" style="shape=image;html=1;verticalAlign=top;verticalLabelPosition=bottom;labelBackgroundColor=#ffffff;imageAspect=0;aspect=fixed;image=https://cdn4.iconfinder.com/data/icons/fruits-and-veggies-2/242/fruits-and-veggies-icons_orange-128.png" vertex="1" parent="1">
          <mxGeometry x="1310" y="50" width="55" height="55" as="geometry" />
        </mxCell>
        <mxCell id="M7QnpnwaKDsf6OKi_bXH-24" value="" style="shape=image;html=1;verticalAlign=top;verticalLabelPosition=bottom;labelBackgroundColor=#ffffff;imageAspect=0;aspect=fixed;image=https://cdn4.iconfinder.com/data/icons/fruits-and-veggies-2/196/fruits-and-veggies-icons_peach-128.png" vertex="1" parent="1">
          <mxGeometry x="1485" y="52.5" width="50" height="50" as="geometry" />
        </mxCell>
        <mxCell id="M7QnpnwaKDsf6OKi_bXH-25" value="" style="shape=image;html=1;verticalAlign=top;verticalLabelPosition=bottom;labelBackgroundColor=#ffffff;imageAspect=0;aspect=fixed;image=https://cdn4.iconfinder.com/data/icons/fruits-and-veggies-2/180/fruits-and-veggies-icons_kiwi-128.png" vertex="1" parent="1">
          <mxGeometry x="1665" y="55" width="50" height="50" as="geometry" />
        </mxCell>
        <mxCell id="M7QnpnwaKDsf6OKi_bXH-27" value="" style="verticalLabelPosition=bottom;shadow=0;dashed=0;align=center;html=1;verticalAlign=top;strokeWidth=1;shape=mxgraph.mockup.misc.shoppingCart;strokeColor=#999999;" vertex="1" parent="1">
          <mxGeometry x="1700" y="-200" width="30" height="30" as="geometry" />
        </mxCell>
        <mxCell id="M7QnpnwaKDsf6OKi_bXH-28" value="" style="verticalLabelPosition=bottom;shadow=0;dashed=0;align=center;html=1;verticalAlign=top;strokeWidth=1;shape=mxgraph.mockup.misc.shoppingCart;strokeColor=#999999;" vertex="1" parent="1">
          <mxGeometry x="1675" y="140" width="30" height="30" as="geometry" />
        </mxCell>
        <mxCell id="M7QnpnwaKDsf6OKi_bXH-29" value="" style="verticalLabelPosition=bottom;shadow=0;dashed=0;align=center;html=1;verticalAlign=top;strokeWidth=1;shape=mxgraph.mockup.misc.shoppingCart;strokeColor=#999999;" vertex="1" parent="1">
          <mxGeometry x="1497.5" y="140" width="30" height="30" as="geometry" />
        </mxCell>
        <mxCell id="M7QnpnwaKDsf6OKi_bXH-30" value="" style="verticalLabelPosition=bottom;shadow=0;dashed=0;align=center;html=1;verticalAlign=top;strokeWidth=1;shape=mxgraph.mockup.misc.shoppingCart;strokeColor=#999999;" vertex="1" parent="1">
          <mxGeometry x="1325" y="140" width="30" height="30" as="geometry" />
        </mxCell>
        <mxCell id="M7QnpnwaKDsf6OKi_bXH-31" value="" style="verticalLabelPosition=bottom;shadow=0;dashed=0;align=center;html=1;verticalAlign=top;strokeWidth=1;shape=mxgraph.mockup.misc.shoppingCart;strokeColor=#999999;" vertex="1" parent="1">
          <mxGeometry x="1140" y="140" width="30" height="30" as="geometry" />
        </mxCell>
        <mxCell id="M7QnpnwaKDsf6OKi_bXH-32" value="Text" style="text;html=1;strokeColor=none;fillColor=none;align=center;verticalAlign=middle;whiteSpace=wrap;rounded=0;" vertex="1" parent="1">
          <mxGeometry x="1120" y="105" width="60" height="30" as="geometry" />
        </mxCell>
        <mxCell id="M7QnpnwaKDsf6OKi_bXH-33" value="Text" style="text;html=1;strokeColor=none;fillColor=none;align=center;verticalAlign=middle;whiteSpace=wrap;rounded=0;" vertex="1" parent="1">
          <mxGeometry x="1310" y="110" width="60" height="30" as="geometry" />
        </mxCell>
        <mxCell id="M7QnpnwaKDsf6OKi_bXH-34" value="Text" style="text;html=1;strokeColor=none;fillColor=none;align=center;verticalAlign=middle;whiteSpace=wrap;rounded=0;" vertex="1" parent="1">
          <mxGeometry x="1480" y="105" width="60" height="30" as="geometry" />
        </mxCell>
        <mxCell id="M7QnpnwaKDsf6OKi_bXH-35" value="Text" style="text;html=1;strokeColor=none;fillColor=none;align=center;verticalAlign=middle;whiteSpace=wrap;rounded=0;" vertex="1" parent="1">
          <mxGeometry x="1655" y="110" width="60" height="30" as="geometry" />
        </mxCell>
        <mxCell id="M7QnpnwaKDsf6OKi_bXH-36" value="" style="rounded=0;whiteSpace=wrap;html=1;" vertex="1" parent="1">
          <mxGeometry x="1090" y="210" width="120" height="140" as="geometry" />
        </mxCell>
        <mxCell id="M7QnpnwaKDsf6OKi_bXH-37" value="" style="rounded=0;whiteSpace=wrap;html=1;" vertex="1" parent="1">
          <mxGeometry x="1275" y="210" width="120" height="140" as="geometry" />
        </mxCell>
        <mxCell id="M7QnpnwaKDsf6OKi_bXH-38" value="" style="rounded=0;whiteSpace=wrap;html=1;" vertex="1" parent="1">
          <mxGeometry x="1450" y="210" width="120" height="140" as="geometry" />
        </mxCell>
        <mxCell id="M7QnpnwaKDsf6OKi_bXH-39" value="" style="rounded=0;whiteSpace=wrap;html=1;" vertex="1" parent="1">
          <mxGeometry x="1630" y="210" width="120" height="140" as="geometry" />
        </mxCell>
        <mxCell id="M7QnpnwaKDsf6OKi_bXH-40" value="" style="rounded=0;whiteSpace=wrap;html=1;" vertex="1" parent="1">
          <mxGeometry x="1630" y="380" width="120" height="140" as="geometry" />
        </mxCell>
        <mxCell id="M7QnpnwaKDsf6OKi_bXH-41" value="" style="rounded=0;whiteSpace=wrap;html=1;" vertex="1" parent="1">
          <mxGeometry x="1450" y="380" width="120" height="140" as="geometry" />
        </mxCell>
        <mxCell id="M7QnpnwaKDsf6OKi_bXH-42" value="" style="rounded=0;whiteSpace=wrap;html=1;" vertex="1" parent="1">
          <mxGeometry x="1275" y="380" width="120" height="140" as="geometry" />
        </mxCell>
        <mxCell id="M7QnpnwaKDsf6OKi_bXH-43" value="" style="rounded=0;whiteSpace=wrap;html=1;" vertex="1" parent="1">
          <mxGeometry x="1090" y="380" width="120" height="140" as="geometry" />
        </mxCell>
        <mxCell id="M7QnpnwaKDsf6OKi_bXH-44" value="" style="rounded=0;whiteSpace=wrap;html=1;" vertex="1" parent="1">
          <mxGeometry x="1630" y="550" width="120" height="140" as="geometry" />
        </mxCell>
        <mxCell id="M7QnpnwaKDsf6OKi_bXH-45" value="" style="rounded=0;whiteSpace=wrap;html=1;" vertex="1" parent="1">
          <mxGeometry x="1450" y="550" width="120" height="140" as="geometry" />
        </mxCell>
        <mxCell id="M7QnpnwaKDsf6OKi_bXH-47" value="" style="rounded=0;whiteSpace=wrap;html=1;" vertex="1" parent="1">
          <mxGeometry x="1090" y="550" width="120" height="140" as="geometry" />
        </mxCell>
        <mxCell id="M7QnpnwaKDsf6OKi_bXH-48" value="" style="rounded=0;whiteSpace=wrap;html=1;" vertex="1" parent="1">
          <mxGeometry x="1090" y="720" width="120" height="140" as="geometry" />
        </mxCell>
        <mxCell id="M7QnpnwaKDsf6OKi_bXH-50" value="" style="rounded=0;whiteSpace=wrap;html=1;" vertex="1" parent="1">
          <mxGeometry x="1450" y="720" width="120" height="140" as="geometry" />
        </mxCell>
        <mxCell id="M7QnpnwaKDsf6OKi_bXH-51" value="" style="rounded=0;whiteSpace=wrap;html=1;" vertex="1" parent="1">
          <mxGeometry x="1630" y="720" width="120" height="140" as="geometry" />
        </mxCell>
        <mxCell id="M7QnpnwaKDsf6OKi_bXH-52" value="" style="shape=image;html=1;verticalAlign=top;verticalLabelPosition=bottom;labelBackgroundColor=#ffffff;imageAspect=0;aspect=fixed;image=https://cdn4.iconfinder.com/data/icons/fruits-and-veggies-2/180/fruits-and-veggies-icons_kiwi-128.png;direction=south;" vertex="1" parent="1">
          <mxGeometry x="1120" y="230" width="50" height="50" as="geometry" />
        </mxCell>
        <mxCell id="M7QnpnwaKDsf6OKi_bXH-53" value="" style="shape=image;html=1;verticalAlign=top;verticalLabelPosition=bottom;labelBackgroundColor=#ffffff;imageAspect=0;aspect=fixed;image=https://cdn4.iconfinder.com/data/icons/fruits-and-veggies-2/219/fruits-and-veggies-icons_apple-128.png" vertex="1" parent="1">
          <mxGeometry x="1310" y="227.5" width="50" height="50" as="geometry" />
        </mxCell>
        <mxCell id="M7QnpnwaKDsf6OKi_bXH-54" value="" style="shape=image;html=1;verticalAlign=top;verticalLabelPosition=bottom;labelBackgroundColor=#ffffff;imageAspect=0;aspect=fixed;image=https://cdn4.iconfinder.com/data/icons/fruits-and-veggies-2/242/fruits-and-veggies-icons_orange-128.png" vertex="1" parent="1">
          <mxGeometry x="1485" y="222.5" width="55" height="55" as="geometry" />
        </mxCell>
        <mxCell id="M7QnpnwaKDsf6OKi_bXH-55" value="" style="shape=image;html=1;verticalAlign=top;verticalLabelPosition=bottom;labelBackgroundColor=#ffffff;imageAspect=0;aspect=fixed;image=https://cdn4.iconfinder.com/data/icons/fruits-and-veggies-2/196/fruits-and-veggies-icons_peach-128.png" vertex="1" parent="1">
          <mxGeometry x="1665" y="230" width="50" height="50" as="geometry" />
        </mxCell>
        <mxCell id="M7QnpnwaKDsf6OKi_bXH-56" value="" style="shape=image;html=1;verticalAlign=top;verticalLabelPosition=bottom;labelBackgroundColor=#ffffff;imageAspect=0;aspect=fixed;image=https://cdn4.iconfinder.com/data/icons/fruits-and-veggies-2/219/fruits-and-veggies-icons_apple-128.png" vertex="1" parent="1">
          <mxGeometry x="1665" y="400" width="50" height="50" as="geometry" />
        </mxCell>
        <mxCell id="M7QnpnwaKDsf6OKi_bXH-57" value="Text" style="text;html=1;strokeColor=none;fillColor=none;align=center;verticalAlign=middle;whiteSpace=wrap;rounded=0;" vertex="1" parent="1">
          <mxGeometry x="1115" y="282.5" width="60" height="30" as="geometry" />
        </mxCell>
        <mxCell id="M7QnpnwaKDsf6OKi_bXH-58" value="Text" style="text;html=1;strokeColor=none;fillColor=none;align=center;verticalAlign=middle;whiteSpace=wrap;rounded=0;" vertex="1" parent="1">
          <mxGeometry x="1307.5" y="282.5" width="60" height="30" as="geometry" />
        </mxCell>
        <mxCell id="M7QnpnwaKDsf6OKi_bXH-59" value="Text" style="text;html=1;strokeColor=none;fillColor=none;align=center;verticalAlign=middle;whiteSpace=wrap;rounded=0;" vertex="1" parent="1">
          <mxGeometry x="1480" y="280" width="60" height="30" as="geometry" />
        </mxCell>
        <mxCell id="M7QnpnwaKDsf6OKi_bXH-60" value="Text" style="text;html=1;strokeColor=none;fillColor=none;align=center;verticalAlign=middle;whiteSpace=wrap;rounded=0;" vertex="1" parent="1">
          <mxGeometry x="1660" y="282.5" width="60" height="30" as="geometry" />
        </mxCell>
        <mxCell id="M7QnpnwaKDsf6OKi_bXH-61" value="" style="verticalLabelPosition=bottom;shadow=0;dashed=0;align=center;html=1;verticalAlign=top;strokeWidth=1;shape=mxgraph.mockup.misc.shoppingCart;strokeColor=#999999;" vertex="1" parent="1">
          <mxGeometry x="1135" y="310" width="30" height="30" as="geometry" />
        </mxCell>
        <mxCell id="M7QnpnwaKDsf6OKi_bXH-62" value="" style="verticalLabelPosition=bottom;shadow=0;dashed=0;align=center;html=1;verticalAlign=top;strokeWidth=1;shape=mxgraph.mockup.misc.shoppingCart;strokeColor=#999999;" vertex="1" parent="1">
          <mxGeometry x="1322.5" y="310" width="30" height="30" as="geometry" />
        </mxCell>
        <mxCell id="M7QnpnwaKDsf6OKi_bXH-63" value="" style="verticalLabelPosition=bottom;shadow=0;dashed=0;align=center;html=1;verticalAlign=top;strokeWidth=1;shape=mxgraph.mockup.misc.shoppingCart;strokeColor=#999999;" vertex="1" parent="1">
          <mxGeometry x="1497.5" y="310" width="30" height="30" as="geometry" />
        </mxCell>
        <mxCell id="M7QnpnwaKDsf6OKi_bXH-64" value="" style="verticalLabelPosition=bottom;shadow=0;dashed=0;align=center;html=1;verticalAlign=top;strokeWidth=1;shape=mxgraph.mockup.misc.shoppingCart;strokeColor=#999999;" vertex="1" parent="1">
          <mxGeometry x="1675" y="310" width="30" height="30" as="geometry" />
        </mxCell>
        <mxCell id="M7QnpnwaKDsf6OKi_bXH-65" value="" style="shape=image;html=1;verticalAlign=top;verticalLabelPosition=bottom;labelBackgroundColor=#ffffff;imageAspect=0;aspect=fixed;image=https://cdn4.iconfinder.com/data/icons/fruits-and-veggies-2/180/fruits-and-veggies-icons_kiwi-128.png;direction=south;" vertex="1" parent="1">
          <mxGeometry x="1487.5" y="400" width="50" height="50" as="geometry" />
        </mxCell>
        <mxCell id="M7QnpnwaKDsf6OKi_bXH-66" value="" style="shape=image;html=1;verticalAlign=top;verticalLabelPosition=bottom;labelBackgroundColor=#ffffff;imageAspect=0;aspect=fixed;image=https://cdn4.iconfinder.com/data/icons/fruits-and-veggies-2/196/fruits-and-veggies-icons_peach-128.png" vertex="1" parent="1">
          <mxGeometry x="1310" y="400" width="50" height="50" as="geometry" />
        </mxCell>
        <mxCell id="M7QnpnwaKDsf6OKi_bXH-67" value="" style="shape=image;html=1;verticalAlign=top;verticalLabelPosition=bottom;labelBackgroundColor=#ffffff;imageAspect=0;aspect=fixed;image=https://cdn4.iconfinder.com/data/icons/fruits-and-veggies-2/242/fruits-and-veggies-icons_orange-128.png" vertex="1" parent="1">
          <mxGeometry x="1122.5" y="397.5" width="55" height="55" as="geometry" />
        </mxCell>
        <mxCell id="M7QnpnwaKDsf6OKi_bXH-68" value="" style="verticalLabelPosition=bottom;shadow=0;dashed=0;align=center;html=1;verticalAlign=top;strokeWidth=1;shape=mxgraph.mockup.misc.shoppingCart;strokeColor=#999999;" vertex="1" parent="1">
          <mxGeometry x="1135" y="480" width="30" height="30" as="geometry" />
        </mxCell>
        <mxCell id="M7QnpnwaKDsf6OKi_bXH-69" value="" style="verticalLabelPosition=bottom;shadow=0;dashed=0;align=center;html=1;verticalAlign=top;strokeWidth=1;shape=mxgraph.mockup.misc.shoppingCart;strokeColor=#999999;" vertex="1" parent="1">
          <mxGeometry x="1320" y="480" width="30" height="30" as="geometry" />
        </mxCell>
        <mxCell id="M7QnpnwaKDsf6OKi_bXH-70" value="" style="verticalLabelPosition=bottom;shadow=0;dashed=0;align=center;html=1;verticalAlign=top;strokeWidth=1;shape=mxgraph.mockup.misc.shoppingCart;strokeColor=#999999;" vertex="1" parent="1">
          <mxGeometry x="1497.5" y="480" width="30" height="30" as="geometry" />
        </mxCell>
        <mxCell id="M7QnpnwaKDsf6OKi_bXH-71" value="" style="verticalLabelPosition=bottom;shadow=0;dashed=0;align=center;html=1;verticalAlign=top;strokeWidth=1;shape=mxgraph.mockup.misc.shoppingCart;strokeColor=#999999;" vertex="1" parent="1">
          <mxGeometry x="1675" y="480" width="30" height="30" as="geometry" />
        </mxCell>
        <mxCell id="M7QnpnwaKDsf6OKi_bXH-72" value="Text" style="text;html=1;strokeColor=none;fillColor=none;align=center;verticalAlign=middle;whiteSpace=wrap;rounded=0;" vertex="1" parent="1">
          <mxGeometry x="1655" y="450" width="60" height="30" as="geometry" />
        </mxCell>
        <mxCell id="M7QnpnwaKDsf6OKi_bXH-73" value="Text" style="text;html=1;strokeColor=none;fillColor=none;align=center;verticalAlign=middle;whiteSpace=wrap;rounded=0;" vertex="1" parent="1">
          <mxGeometry x="1482.5" y="450" width="60" height="30" as="geometry" />
        </mxCell>
        <mxCell id="M7QnpnwaKDsf6OKi_bXH-74" value="Text" style="text;html=1;strokeColor=none;fillColor=none;align=center;verticalAlign=middle;whiteSpace=wrap;rounded=0;" vertex="1" parent="1">
          <mxGeometry x="1305" y="455" width="60" height="30" as="geometry" />
        </mxCell>
        <mxCell id="M7QnpnwaKDsf6OKi_bXH-75" value="Text" style="text;html=1;strokeColor=none;fillColor=none;align=center;verticalAlign=middle;whiteSpace=wrap;rounded=0;" vertex="1" parent="1">
          <mxGeometry x="1117.5" y="455" width="60" height="30" as="geometry" />
        </mxCell>
        <mxCell id="M7QnpnwaKDsf6OKi_bXH-76" value="" style="rounded=0;whiteSpace=wrap;html=1;" vertex="1" parent="1">
          <mxGeometry x="1090" y="550" width="120" height="140" as="geometry" />
        </mxCell>
        <mxCell id="M7QnpnwaKDsf6OKi_bXH-77" value="" style="rounded=0;whiteSpace=wrap;html=1;" vertex="1" parent="1">
          <mxGeometry x="1275" y="550" width="120" height="140" as="geometry" />
        </mxCell>
        <mxCell id="M7QnpnwaKDsf6OKi_bXH-78" value="" style="rounded=0;whiteSpace=wrap;html=1;" vertex="1" parent="1">
          <mxGeometry x="1450" y="550" width="120" height="140" as="geometry" />
        </mxCell>
        <mxCell id="M7QnpnwaKDsf6OKi_bXH-80" value="" style="rounded=0;whiteSpace=wrap;html=1;" vertex="1" parent="1">
          <mxGeometry x="1630" y="550" width="120" height="140" as="geometry" />
        </mxCell>
        <mxCell id="M7QnpnwaKDsf6OKi_bXH-81" value="" style="shape=image;html=1;verticalAlign=top;verticalLabelPosition=bottom;labelBackgroundColor=#ffffff;imageAspect=0;aspect=fixed;image=https://cdn4.iconfinder.com/data/icons/fruits-and-veggies-2/219/fruits-and-veggies-icons_apple-128.png" vertex="1" parent="1">
          <mxGeometry x="1125" y="560" width="50" height="50" as="geometry" />
        </mxCell>
        <mxCell id="M7QnpnwaKDsf6OKi_bXH-82" value="" style="shape=image;html=1;verticalAlign=top;verticalLabelPosition=bottom;labelBackgroundColor=#ffffff;imageAspect=0;aspect=fixed;image=https://cdn4.iconfinder.com/data/icons/fruits-and-veggies-2/242/fruits-and-veggies-icons_orange-128.png" vertex="1" parent="1">
          <mxGeometry x="1310" y="560" width="55" height="55" as="geometry" />
        </mxCell>
        <mxCell id="M7QnpnwaKDsf6OKi_bXH-83" value="" style="shape=image;html=1;verticalAlign=top;verticalLabelPosition=bottom;labelBackgroundColor=#ffffff;imageAspect=0;aspect=fixed;image=https://cdn4.iconfinder.com/data/icons/fruits-and-veggies-2/196/fruits-and-veggies-icons_peach-128.png" vertex="1" parent="1">
          <mxGeometry x="1485" y="562.5" width="50" height="50" as="geometry" />
        </mxCell>
        <mxCell id="M7QnpnwaKDsf6OKi_bXH-84" value="" style="shape=image;html=1;verticalAlign=top;verticalLabelPosition=bottom;labelBackgroundColor=#ffffff;imageAspect=0;aspect=fixed;image=https://cdn4.iconfinder.com/data/icons/fruits-and-veggies-2/180/fruits-and-veggies-icons_kiwi-128.png" vertex="1" parent="1">
          <mxGeometry x="1665" y="565" width="50" height="50" as="geometry" />
        </mxCell>
        <mxCell id="M7QnpnwaKDsf6OKi_bXH-85" value="" style="verticalLabelPosition=bottom;shadow=0;dashed=0;align=center;html=1;verticalAlign=top;strokeWidth=1;shape=mxgraph.mockup.misc.shoppingCart;strokeColor=#999999;" vertex="1" parent="1">
          <mxGeometry x="1675" y="650" width="30" height="30" as="geometry" />
        </mxCell>
        <mxCell id="M7QnpnwaKDsf6OKi_bXH-86" value="" style="verticalLabelPosition=bottom;shadow=0;dashed=0;align=center;html=1;verticalAlign=top;strokeWidth=1;shape=mxgraph.mockup.misc.shoppingCart;strokeColor=#999999;" vertex="1" parent="1">
          <mxGeometry x="1497.5" y="650" width="30" height="30" as="geometry" />
        </mxCell>
        <mxCell id="M7QnpnwaKDsf6OKi_bXH-87" value="" style="verticalLabelPosition=bottom;shadow=0;dashed=0;align=center;html=1;verticalAlign=top;strokeWidth=1;shape=mxgraph.mockup.misc.shoppingCart;strokeColor=#999999;" vertex="1" parent="1">
          <mxGeometry x="1325" y="650" width="30" height="30" as="geometry" />
        </mxCell>
        <mxCell id="M7QnpnwaKDsf6OKi_bXH-88" value="" style="verticalLabelPosition=bottom;shadow=0;dashed=0;align=center;html=1;verticalAlign=top;strokeWidth=1;shape=mxgraph.mockup.misc.shoppingCart;strokeColor=#999999;" vertex="1" parent="1">
          <mxGeometry x="1140" y="650" width="30" height="30" as="geometry" />
        </mxCell>
        <mxCell id="M7QnpnwaKDsf6OKi_bXH-89" value="Text" style="text;html=1;strokeColor=none;fillColor=none;align=center;verticalAlign=middle;whiteSpace=wrap;rounded=0;" vertex="1" parent="1">
          <mxGeometry x="1120" y="615" width="60" height="30" as="geometry" />
        </mxCell>
        <mxCell id="M7QnpnwaKDsf6OKi_bXH-90" value="Text" style="text;html=1;strokeColor=none;fillColor=none;align=center;verticalAlign=middle;whiteSpace=wrap;rounded=0;" vertex="1" parent="1">
          <mxGeometry x="1310" y="620" width="60" height="30" as="geometry" />
        </mxCell>
        <mxCell id="M7QnpnwaKDsf6OKi_bXH-91" value="Text" style="text;html=1;strokeColor=none;fillColor=none;align=center;verticalAlign=middle;whiteSpace=wrap;rounded=0;" vertex="1" parent="1">
          <mxGeometry x="1480" y="615" width="60" height="30" as="geometry" />
        </mxCell>
        <mxCell id="M7QnpnwaKDsf6OKi_bXH-92" value="Text" style="text;html=1;strokeColor=none;fillColor=none;align=center;verticalAlign=middle;whiteSpace=wrap;rounded=0;" vertex="1" parent="1">
          <mxGeometry x="1655" y="620" width="60" height="30" as="geometry" />
        </mxCell>
        <mxCell id="M7QnpnwaKDsf6OKi_bXH-93" value="" style="rounded=0;whiteSpace=wrap;html=1;" vertex="1" parent="1">
          <mxGeometry x="1090" y="890" width="120" height="140" as="geometry" />
        </mxCell>
        <mxCell id="M7QnpnwaKDsf6OKi_bXH-94" value="" style="rounded=0;whiteSpace=wrap;html=1;" vertex="1" parent="1">
          <mxGeometry x="1275" y="720" width="120" height="140" as="geometry" />
        </mxCell>
        <mxCell id="M7QnpnwaKDsf6OKi_bXH-95" value="" style="rounded=0;whiteSpace=wrap;html=1;" vertex="1" parent="1">
          <mxGeometry x="1450" y="720" width="120" height="140" as="geometry" />
        </mxCell>
        <mxCell id="M7QnpnwaKDsf6OKi_bXH-96" value="" style="rounded=0;whiteSpace=wrap;html=1;" vertex="1" parent="1">
          <mxGeometry x="1630" y="720" width="120" height="140" as="geometry" />
        </mxCell>
        <mxCell id="M7QnpnwaKDsf6OKi_bXH-97" value="" style="shape=image;html=1;verticalAlign=top;verticalLabelPosition=bottom;labelBackgroundColor=#ffffff;imageAspect=0;aspect=fixed;image=https://cdn4.iconfinder.com/data/icons/fruits-and-veggies-2/180/fruits-and-veggies-icons_kiwi-128.png;direction=south;" vertex="1" parent="1">
          <mxGeometry x="1120" y="740" width="50" height="50" as="geometry" />
        </mxCell>
        <mxCell id="M7QnpnwaKDsf6OKi_bXH-98" value="" style="shape=image;html=1;verticalAlign=top;verticalLabelPosition=bottom;labelBackgroundColor=#ffffff;imageAspect=0;aspect=fixed;image=https://cdn4.iconfinder.com/data/icons/fruits-and-veggies-2/219/fruits-and-veggies-icons_apple-128.png" vertex="1" parent="1">
          <mxGeometry x="1310" y="737.5" width="50" height="50" as="geometry" />
        </mxCell>
        <mxCell id="M7QnpnwaKDsf6OKi_bXH-99" value="" style="shape=image;html=1;verticalAlign=top;verticalLabelPosition=bottom;labelBackgroundColor=#ffffff;imageAspect=0;aspect=fixed;image=https://cdn4.iconfinder.com/data/icons/fruits-and-veggies-2/242/fruits-and-veggies-icons_orange-128.png" vertex="1" parent="1">
          <mxGeometry x="1485" y="732.5" width="55" height="55" as="geometry" />
        </mxCell>
        <mxCell id="M7QnpnwaKDsf6OKi_bXH-100" value="" style="shape=image;html=1;verticalAlign=top;verticalLabelPosition=bottom;labelBackgroundColor=#ffffff;imageAspect=0;aspect=fixed;image=https://cdn4.iconfinder.com/data/icons/fruits-and-veggies-2/196/fruits-and-veggies-icons_peach-128.png" vertex="1" parent="1">
          <mxGeometry x="1665" y="740" width="50" height="50" as="geometry" />
        </mxCell>
        <mxCell id="M7QnpnwaKDsf6OKi_bXH-102" value="Text" style="text;html=1;strokeColor=none;fillColor=none;align=center;verticalAlign=middle;whiteSpace=wrap;rounded=0;" vertex="1" parent="1">
          <mxGeometry x="1115" y="792.5" width="60" height="30" as="geometry" />
        </mxCell>
        <mxCell id="M7QnpnwaKDsf6OKi_bXH-103" value="Text" style="text;html=1;strokeColor=none;fillColor=none;align=center;verticalAlign=middle;whiteSpace=wrap;rounded=0;" vertex="1" parent="1">
          <mxGeometry x="1305" y="792.5" width="60" height="30" as="geometry" />
        </mxCell>
        <mxCell id="M7QnpnwaKDsf6OKi_bXH-104" value="Text" style="text;html=1;strokeColor=none;fillColor=none;align=center;verticalAlign=middle;whiteSpace=wrap;rounded=0;" vertex="1" parent="1">
          <mxGeometry x="1480" y="790" width="60" height="30" as="geometry" />
        </mxCell>
        <mxCell id="M7QnpnwaKDsf6OKi_bXH-105" value="Text" style="text;html=1;strokeColor=none;fillColor=none;align=center;verticalAlign=middle;whiteSpace=wrap;rounded=0;" vertex="1" parent="1">
          <mxGeometry x="1660" y="787.5" width="60" height="30" as="geometry" />
        </mxCell>
        <mxCell id="M7QnpnwaKDsf6OKi_bXH-106" value="" style="verticalLabelPosition=bottom;shadow=0;dashed=0;align=center;html=1;verticalAlign=top;strokeWidth=1;shape=mxgraph.mockup.misc.shoppingCart;strokeColor=#999999;" vertex="1" parent="1">
          <mxGeometry x="1135" y="820" width="30" height="30" as="geometry" />
        </mxCell>
        <mxCell id="M7QnpnwaKDsf6OKi_bXH-107" value="" style="verticalLabelPosition=bottom;shadow=0;dashed=0;align=center;html=1;verticalAlign=top;strokeWidth=1;shape=mxgraph.mockup.misc.shoppingCart;strokeColor=#999999;" vertex="1" parent="1">
          <mxGeometry x="1322.5" y="820" width="30" height="30" as="geometry" />
        </mxCell>
        <mxCell id="M7QnpnwaKDsf6OKi_bXH-108" value="" style="verticalLabelPosition=bottom;shadow=0;dashed=0;align=center;html=1;verticalAlign=top;strokeWidth=1;shape=mxgraph.mockup.misc.shoppingCart;strokeColor=#999999;" vertex="1" parent="1">
          <mxGeometry x="1497.5" y="820" width="30" height="30" as="geometry" />
        </mxCell>
        <mxCell id="M7QnpnwaKDsf6OKi_bXH-109" value="" style="verticalLabelPosition=bottom;shadow=0;dashed=0;align=center;html=1;verticalAlign=top;strokeWidth=1;shape=mxgraph.mockup.misc.shoppingCart;strokeColor=#999999;" vertex="1" parent="1">
          <mxGeometry x="1675" y="820" width="30" height="30" as="geometry" />
        </mxCell>
        <mxCell id="M7QnpnwaKDsf6OKi_bXH-112" value="" style="shape=image;html=1;verticalAlign=top;verticalLabelPosition=bottom;labelBackgroundColor=#ffffff;imageAspect=0;aspect=fixed;image=https://cdn4.iconfinder.com/data/icons/fruits-and-veggies-2/242/fruits-and-veggies-icons_orange-128.png" vertex="1" parent="1">
          <mxGeometry x="1122.5" y="907.5" width="55" height="55" as="geometry" />
        </mxCell>
        <mxCell id="M7QnpnwaKDsf6OKi_bXH-113" value="" style="verticalLabelPosition=bottom;shadow=0;dashed=0;align=center;html=1;verticalAlign=top;strokeWidth=1;shape=mxgraph.mockup.misc.shoppingCart;strokeColor=#999999;" vertex="1" parent="1">
          <mxGeometry x="1135" y="990" width="30" height="30" as="geometry" />
        </mxCell>
        <mxCell id="M7QnpnwaKDsf6OKi_bXH-115" value="" style="verticalLabelPosition=bottom;shadow=0;dashed=0;align=center;html=1;verticalAlign=top;strokeWidth=1;shape=mxgraph.mockup.misc.shoppingCart;strokeColor=#999999;" vertex="1" parent="1">
          <mxGeometry x="1315" y="990" width="30" height="30" as="geometry" />
        </mxCell>
        <mxCell id="M7QnpnwaKDsf6OKi_bXH-120" value="Text" style="text;html=1;strokeColor=none;fillColor=none;align=center;verticalAlign=middle;whiteSpace=wrap;rounded=0;" vertex="1" parent="1">
          <mxGeometry x="1117.5" y="965" width="60" height="30" as="geometry" />
        </mxCell>
        <mxCell id="M7QnpnwaKDsf6OKi_bXH-123" value="&lt;h1&gt;Our locations&lt;/h1&gt;" style="text;html=1;align=center;verticalAlign=middle;whiteSpace=wrap;rounded=0;fontSize=12;fontFamily=Helvetica;" vertex="1" parent="1">
          <mxGeometry x="185" y="1130" width="160" height="30" as="geometry" />
        </mxCell>
        <mxCell id="M7QnpnwaKDsf6OKi_bXH-132" value="" style="rounded=0;whiteSpace=wrap;html=1;" vertex="1" parent="1">
          <mxGeometry x="1270" y="890" width="120" height="140" as="geometry" />
        </mxCell>
        <mxCell id="M7QnpnwaKDsf6OKi_bXH-134" value="" style="shape=image;html=1;verticalAlign=top;verticalLabelPosition=bottom;labelBackgroundColor=#ffffff;imageAspect=0;aspect=fixed;image=https://cdn4.iconfinder.com/data/icons/fruits-and-veggies-2/196/fruits-and-veggies-icons_peach-128.png" vertex="1" parent="1">
          <mxGeometry x="1305" y="907.5" width="50" height="50" as="geometry" />
        </mxCell>
        <mxCell id="M7QnpnwaKDsf6OKi_bXH-135" value="Text" style="text;html=1;strokeColor=none;fillColor=none;align=center;verticalAlign=middle;whiteSpace=wrap;rounded=0;" vertex="1" parent="1">
          <mxGeometry x="1300" y="960" width="60" height="30" as="geometry" />
        </mxCell>
        <mxCell id="M7QnpnwaKDsf6OKi_bXH-136" value="" style="verticalLabelPosition=bottom;shadow=0;dashed=0;align=center;html=1;verticalAlign=top;strokeWidth=1;shape=mxgraph.mockup.misc.shoppingCart;strokeColor=#999999;" vertex="1" parent="1">
          <mxGeometry x="1320" y="985" width="30" height="30" as="geometry" />
        </mxCell>
        <mxCell id="M7QnpnwaKDsf6OKi_bXH-138" value="" style="rounded=0;whiteSpace=wrap;html=1;" vertex="1" parent="1">
          <mxGeometry x="1452.5" y="890" width="120" height="140" as="geometry" />
        </mxCell>
        <mxCell id="M7QnpnwaKDsf6OKi_bXH-139" value="" style="shape=image;html=1;verticalAlign=top;verticalLabelPosition=bottom;labelBackgroundColor=#ffffff;imageAspect=0;aspect=fixed;image=https://cdn4.iconfinder.com/data/icons/fruits-and-veggies-2/180/fruits-and-veggies-icons_kiwi-128.png;direction=south;" vertex="1" parent="1">
          <mxGeometry x="1487.5" y="907.5" width="50" height="50" as="geometry" />
        </mxCell>
        <mxCell id="M7QnpnwaKDsf6OKi_bXH-140" value="" style="verticalLabelPosition=bottom;shadow=0;dashed=0;align=center;html=1;verticalAlign=top;strokeWidth=1;shape=mxgraph.mockup.misc.shoppingCart;strokeColor=#999999;" vertex="1" parent="1">
          <mxGeometry x="1505" y="985" width="30" height="30" as="geometry" />
        </mxCell>
        <mxCell id="M7QnpnwaKDsf6OKi_bXH-141" value="Text" style="text;html=1;strokeColor=none;fillColor=none;align=center;verticalAlign=middle;whiteSpace=wrap;rounded=0;" vertex="1" parent="1">
          <mxGeometry x="1482.5" y="955" width="60" height="30" as="geometry" />
        </mxCell>
        <mxCell id="M7QnpnwaKDsf6OKi_bXH-142" value="" style="rounded=0;whiteSpace=wrap;html=1;" vertex="1" parent="1">
          <mxGeometry x="1625" y="890" width="120" height="140" as="geometry" />
        </mxCell>
        <mxCell id="M7QnpnwaKDsf6OKi_bXH-143" value="" style="shape=image;html=1;verticalAlign=top;verticalLabelPosition=bottom;labelBackgroundColor=#ffffff;imageAspect=0;aspect=fixed;image=https://cdn4.iconfinder.com/data/icons/fruits-and-veggies-2/219/fruits-and-veggies-icons_apple-128.png" vertex="1" parent="1">
          <mxGeometry x="1665" y="910" width="50" height="50" as="geometry" />
        </mxCell>
        <mxCell id="M7QnpnwaKDsf6OKi_bXH-144" value="" style="rounded=0;whiteSpace=wrap;html=1;strokeColor=default;fontFamily=Helvetica;fontSize=12;fontColor=default;fillColor=default;" vertex="1" parent="1">
          <mxGeometry x="150" y="1830" width="260" height="60" as="geometry" />
        </mxCell>
        <mxCell id="M7QnpnwaKDsf6OKi_bXH-146" value="" style="shape=image;html=1;verticalAlign=top;verticalLabelPosition=bottom;labelBackgroundColor=#ffffff;imageAspect=0;aspect=fixed;image=https://cdn1.iconfinder.com/data/icons/social-media-circle-7/512/Circled_Instagram_svg-128.png;rounded=0;strokeColor=default;fontFamily=Helvetica;fontSize=12;fontColor=default;fillColor=default;" vertex="1" parent="1">
          <mxGeometry x="170" y="1835" width="50" height="50" as="geometry" />
        </mxCell>
        <mxCell id="M7QnpnwaKDsf6OKi_bXH-147" value="" style="shape=image;html=1;verticalAlign=top;verticalLabelPosition=bottom;labelBackgroundColor=#ffffff;imageAspect=0;aspect=fixed;image=https://cdn2.iconfinder.com/data/icons/social-media-2421/512/TikTok-128.png;rounded=0;strokeColor=default;fontFamily=Helvetica;fontSize=12;fontColor=default;fillColor=default;" vertex="1" parent="1">
          <mxGeometry x="250" y="1835" width="50" height="50" as="geometry" />
        </mxCell>
        <mxCell id="M7QnpnwaKDsf6OKi_bXH-149" value="" style="shape=image;html=1;verticalAlign=top;verticalLabelPosition=bottom;labelBackgroundColor=#ffffff;imageAspect=0;aspect=fixed;image=https://cdn1.iconfinder.com/data/icons/social-media-circle-7/512/Circled_Facebook_svg-128.png;rounded=0;strokeColor=default;fontFamily=Helvetica;fontSize=12;fontColor=default;fillColor=default;" vertex="1" parent="1">
          <mxGeometry x="330" y="1835" width="50" height="50" as="geometry" />
        </mxCell>
        <mxCell id="M7QnpnwaKDsf6OKi_bXH-151" value="available products" style="text;html=1;strokeColor=none;fillColor=none;align=center;verticalAlign=middle;whiteSpace=wrap;rounded=0;fontSize=12;fontFamily=Helvetica;fontColor=default;" vertex="1" parent="1">
          <mxGeometry x="-48" y="1705" width="109" height="30" as="geometry" />
        </mxCell>
        <mxCell id="M7QnpnwaKDsf6OKi_bXH-152" value="Text" style="text;html=1;strokeColor=none;fillColor=none;align=center;verticalAlign=middle;whiteSpace=wrap;rounded=0;" vertex="1" parent="1">
          <mxGeometry x="1655" y="957.5" width="60" height="30" as="geometry" />
        </mxCell>
        <mxCell id="M7QnpnwaKDsf6OKi_bXH-153" value="" style="verticalLabelPosition=bottom;shadow=0;dashed=0;align=center;html=1;verticalAlign=top;strokeWidth=1;shape=mxgraph.mockup.misc.shoppingCart;strokeColor=#999999;" vertex="1" parent="1">
          <mxGeometry x="1675" y="985" width="30" height="30" as="geometry" />
        </mxCell>
      </root>
    </mxGraphModel>
  </diagram>
</mxfile>
